<svg width="11" height="11" viewBox="0 0 11 11" fill="none" xmlns="http://www.w3.org/2000/svg">
<path d="M10.448 4.31855C10.3819 4.11241 10.2004 3.96599 9.98567 3.9465L7.06903 3.67969L5.9157 0.960156C5.83066 0.76085 5.63699 0.631836 5.42181 0.631836C5.20663 0.631836 5.01295 0.76085 4.92791 0.960622L3.77459 3.67969L0.857483 3.9465C0.643148 3.96646 0.462121 4.11241 0.395584 4.31855C0.329048 4.52469 0.390496 4.75079 0.552634 4.89332L2.75727 6.84119L2.10718 9.72617C2.05961 9.93829 2.14133 10.1576 2.31604 10.2848C2.40994 10.3531 2.51981 10.3879 2.6306 10.3879C2.72613 10.3879 2.82088 10.362 2.90592 10.3107L5.42181 8.79589L7.93677 10.3107C8.12081 10.4223 8.3528 10.4121 8.52712 10.2848C8.7019 10.1572 8.78355 9.93782 8.73598 9.72617L8.08588 6.84119L10.2905 4.89371C10.4527 4.75079 10.5146 4.52508 10.448 4.31855Z" fill="#FFC107"/>
</svg>
