<svg width="32" height="32" viewBox="0 0 32 32" fill="none" xmlns="http://www.w3.org/2000/svg">
<g id="bx:bxs-check-circle">
<path id="Vector" d="M16.0003 2.66699C8.64833 2.66699 2.66699 8.64833 2.66699 16.0003C2.66699 23.3523 8.64833 29.3337 16.0003 29.3337C23.3523 29.3337 29.3337 23.3523 29.3337 16.0003C29.3337 8.64833 23.3523 2.66699 16.0003 2.66699ZM13.335 21.8843L9.32759 17.8856C8.80659 17.3657 8.80554 16.5219 9.32524 16.0007C9.84527 15.4792 10.6897 15.4783 11.2109 15.9986L13.3323 18.1163L19.4483 12.0003C19.9689 11.4797 20.813 11.4797 21.3337 12.0003C21.8543 12.5209 21.8543 13.365 21.3337 13.8857L13.335 21.8843Z" fill="#2FAB73"/>
</g>
</svg>
