<svg width="19" height="16" viewBox="0 0 19 16" fill="none" xmlns="http://www.w3.org/2000/svg">
<path id="Vector" d="M17.083 0.5H12.083C11.5979 0.5 11.1194 0.612953 10.6855 0.829915C10.2515 1.04688 9.87409 1.36189 9.58301 1.75C9.29192 1.36189 8.91447 1.04688 8.48055 0.829915C8.04663 0.612953 7.56815 0.5 7.08301 0.5H2.08301C1.75149 0.5 1.43354 0.631696 1.19912 0.866116C0.964704 1.10054 0.833008 1.41848 0.833008 1.75V11.75C0.833008 12.0815 0.964704 12.3995 1.19912 12.6339C1.43354 12.8683 1.75149 13 2.08301 13H7.08301C7.58029 13 8.0572 13.1975 8.40883 13.5492C8.76046 13.9008 8.95801 14.3777 8.95801 14.875C8.95801 15.0408 9.02386 15.1997 9.14107 15.3169C9.25828 15.4342 9.41725 15.5 9.58301 15.5C9.74877 15.5 9.90774 15.4342 10.025 15.3169C10.1422 15.1997 10.208 15.0408 10.208 14.875C10.208 14.3777 10.4056 13.9008 10.7572 13.5492C11.1088 13.1975 11.5857 13 12.083 13H17.083C17.4145 13 17.7325 12.8683 17.9669 12.6339C18.2013 12.3995 18.333 12.0815 18.333 11.75V1.75C18.333 1.41848 18.2013 1.10054 17.9669 0.866116C17.7325 0.631696 17.4145 0.5 17.083 0.5ZM7.08301 11.75H2.08301V1.75H7.08301C7.58029 1.75 8.0572 1.94754 8.40883 2.29917C8.76046 2.65081 8.95801 3.12772 8.95801 3.625V12.375C8.41759 11.9683 7.75934 11.7489 7.08301 11.75ZM17.083 11.75H12.083C11.4067 11.7489 10.7484 11.9683 10.208 12.375V3.625C10.208 3.12772 10.4056 2.65081 10.7572 2.29917C11.1088 1.94754 11.5857 1.75 12.083 1.75H17.083V11.75ZM12.083 3.625H15.208C15.3738 3.625 15.5327 3.69085 15.65 3.80806C15.7672 3.92527 15.833 4.08424 15.833 4.25C15.833 4.41576 15.7672 4.57473 15.65 4.69194C15.5327 4.80915 15.3738 4.875 15.208 4.875H12.083C11.9172 4.875 11.7583 4.80915 11.6411 4.69194C11.5239 4.57473 11.458 4.41576 11.458 4.25C11.458 4.08424 11.5239 3.92527 11.6411 3.80806C11.7583 3.69085 11.9172 3.625 12.083 3.625ZM15.833 6.75C15.833 6.91576 15.7672 7.07473 15.65 7.19194C15.5327 7.30915 15.3738 7.375 15.208 7.375H12.083C11.9172 7.375 11.7583 7.30915 11.6411 7.19194C11.5239 7.07473 11.458 6.91576 11.458 6.75C11.458 6.58424 11.5239 6.42527 11.6411 6.30806C11.7583 6.19085 11.9172 6.125 12.083 6.125H15.208C15.3738 6.125 15.5327 6.19085 15.65 6.30806C15.7672 6.42527 15.833 6.58424 15.833 6.75ZM15.833 9.25C15.833 9.41576 15.7672 9.57473 15.65 9.69194C15.5327 9.80915 15.3738 9.875 15.208 9.875H12.083C11.9172 9.875 11.7583 9.80915 11.6411 9.69194C11.5239 9.57473 11.458 9.41576 11.458 9.25C11.458 9.08424 11.5239 8.92527 11.6411 8.80806C11.7583 8.69085 11.9172 8.625 12.083 8.625H15.208C15.3738 8.625 15.5327 8.69085 15.65 8.80806C15.7672 8.92527 15.833 9.08424 15.833 9.25Z" fill="black"/>
</svg>
